<svg
  xmlns="http://www.w3.org/2000/svg"
  viewBox="0 0 32 32"
  fill="#25D366"
>
  <path d="M19.11 17.2c-.27-.14-1.6-.79-1.85-.88-.25-.09-.43-.14-.61.14-.18.27-.7.88-.86 1.06-.16.18-.31.2-.58.07-.27-.14-1.12-.41-2.14-1.3-.79-.7-1.33-1.56-1.49-1.83-.16-.27-.02-.41.12-.55.13-.13.27-.34.41-.5.14-.16.18-.27.27-.45.09-.18.05-.34-.02-.48-.07-.14-.61-1.47-.84-2.02-.22-.53-.44-.46-.61-.47h-.52c-.18 0-.48.07-.73.34-.25.27-.95.93-.95 2.27s.98 2.63 1.11 2.81c.14.18 1.91 2.91 4.63 4.08.65.28 1.16.45 1.55.58.65.2 1.24.17 1.7.1.52-.08 1.6-.65 1.82-1.28.23-.63.23-1.17.16-1.28-.07-.11-.25-.18-.52-.32z"/>
  <path d="M16 3C8.83 3 3 8.74 3 15.82c0 2.5.73 4.93 2.11 7L3 29l6.38-2.06A13.03 13.03 0 0 0 16 28.64c7.17 0 13-5.74 13-12.82C29 8.74 23.17 3 16 3zm0 23.36c-2.1 0-4.16-.57-5.95-1.66l-.43-.26-3.79 1.22 1.24-3.68-.28-.45a10.3 10.3 0 0 1-1.58-5.51c0-5.72 4.82-10.37 10.75-10.37s10.75 4.65 10.75 10.37-4.82 10.34-10.75 10.34z"/>
</svg>